<?xml version="1.0" encoding="UTF-8" standalone="no"?>
<!-- Created with Inkscape (http://www.inkscape.org/) -->

<svg
   xmlns:dc="http://purl.org/dc/elements/1.1/"
   xmlns:cc="http://creativecommons.org/ns#"
   xmlns:rdf="http://www.w3.org/1999/02/22-rdf-syntax-ns#"
   xmlns:svg="http://www.w3.org/2000/svg"
   xmlns="http://www.w3.org/2000/svg"
   xmlns:sodipodi="http://sodipodi.sourceforge.net/DTD/sodipodi-0.dtd"
   xmlns:inkscape="http://www.inkscape.org/namespaces/inkscape"
   width="100"
   height="100"
   id="svg2"
   version="1.1"
   inkscape:version="0.91 r13725"
   sodipodi:docname="Companies.svg">
  <defs
     id="defs4" />
  <sodipodi:namedview
     id="base"
     pagecolor="#ffffff"
     bordercolor="#666666"
     borderopacity="1.0"
     inkscape:pageopacity="0.0"
     inkscape:pageshadow="2"
     inkscape:zoom="2.7999999"
     inkscape:cx="20.417686"
     inkscape:cy="61.72276"
     inkscape:document-units="px"
     inkscape:current-layer="layer1"
     showgrid="false"
     units="px"
     inkscape:window-width="1920"
     inkscape:window-height="1018"
     inkscape:window-x="-8"
     inkscape:window-y="-8"
     inkscape:window-maximized="1" />
  <metadata
     id="metadata7">
    <rdf:RDF>
      <cc:Work
         rdf:about="">
        <dc:format>image/svg+xml</dc:format>
        <dc:type
           rdf:resource="http://purl.org/dc/dcmitype/StillImage" />
        <dc:title></dc:title>
      </cc:Work>
    </rdf:RDF>
  </metadata>
  <g
     inkscape:label="Ebene 1"
     inkscape:groupmode="layer"
     id="layer1"
     transform="translate(0,-952.3622)">
    <g
       id="g4698"
       transform="translate(0,2.5069)">
      <path
         transform="translate(0,952.3622)"
         id="path4266-7-3-8"
         d="M 6.6074219,0 C 2.9463504,0 0,2.9463719 0,6.6074219 L 0,68.240234 c 0,0.019 0.00195313,0.03864 0.00195313,0.05664 l 17.45312487,0 0,-50.089844 c 0,-0.796306 0.08304,-1.572386 0.240234,-2.324219 l 0,-4.046874 1.714844,0 c 2.061257,-3.0503027 5.550996,-5.070313 9.484375,-5.070313 l 0.0059,0 17.361328,0 0,-0.1582031 C 46.261719,2.9463719 43.31536,0 39.654297,0 L 6.6132812,0 6.6074219,0 Z m -2.2128907,11.835938 10.2968748,0 0,10.296874 -10.2968748,0 0,-10.296874 z m 0,14.330078 10.2968748,0 0,10.296875 -10.2968748,0 0,-10.296875 z m 0,14.929687 10.2968748,0 0,10.296875 -10.2968748,0 0,-10.296875 z"
         style="opacity:1;fill:#000000;fill-opacity:1;stroke:none;stroke-width:26.39999962;stroke-linecap:butt;stroke-linejoin:miter;stroke-miterlimit:4;stroke-dasharray:105.6, 26.4;stroke-dashoffset:0;stroke-opacity:1"
         inkscape:connector-curvature="0" />
      <path
         transform="translate(0,952.3622)"
         id="path4266-7-3-8-3"
         d="m 60.345703,0 c -3.661072,0 -6.607422,2.9463719 -6.607422,6.6074219 l 0,0.1582031 17.365235,0 c 3.934334,0 7.426631,2.0187685 9.488281,5.070313 l 1.138672,0 0,2.169921 c 0.520461,1.30375 0.814453,2.718909 0.814453,4.201172 l 0,50.089844 17.451172,0 c 1.9e-4,-0.019 0.0039,-0.03864 0.0039,-0.05664 L 100,6.6074219 C 100,2.9463719 97.053638,0 93.392578,0 l -33.042969,0 -0.0039,0 z m 25.246094,11.835938 10.294922,0 0,10.296874 -10.294922,0 0,-10.296874 z m 0,14.330078 10.294922,0 0,10.296875 -10.294922,0 0,-10.296875 z m 0,14.929687 10.294922,0 0,10.296875 -10.294922,0 0,-10.296875 z"
         style="opacity:1;fill:#000000;fill-opacity:1;stroke:none;stroke-width:26.39999962;stroke-linecap:butt;stroke-linejoin:miter;stroke-miterlimit:4;stroke-dasharray:105.6, 26.4;stroke-dashoffset:0;stroke-opacity:1"
         inkscape:connector-curvature="0" />
      <path
         style="opacity:1;fill:#000000;fill-opacity:1;stroke:none;stroke-width:26.39999962;stroke-linecap:butt;stroke-linejoin:miter;stroke-miterlimit:4;stroke-dasharray:105.6, 26.4;stroke-dashoffset:0;stroke-opacity:1"
         d="m 28.894979,962.62121 c -4.676243,0 -8.440557,3.7643 -8.440557,8.4405 l 0,78.72159 c 0,0.024 0.0039,0.048 0.0039,0.072 l 59.082156,0 c 2.44e-4,-0.024 0.0051,-0.048 0.0051,-0.072 l 0,-78.72159 c 0,-4.6762 -3.764308,-8.4405 -8.440554,-8.4405 l -42.204459,0 -0.0048,0 z m -2.826587,15.1176 13.151521,0 0,13.1515 -13.151521,0 0,-13.1515 z m 16.98844,0 13.151524,0 0,13.1515 -13.151524,0 0,-13.1515 z m 18.083981,0 13.151517,0 0,13.1515 -13.151517,0 0,-13.1515 z m -35.072421,18.3038 13.151521,0 0,13.15159 -13.151521,0 0,-13.15159 z m 16.98844,0 13.151524,0 0,13.15159 -13.151524,0 0,-13.15159 z m 18.083981,0 13.151517,0 0,13.15159 -13.151517,0 0,-13.15159 z m -35.072421,19.06859 13.151521,0 0,13.1534 -13.151521,0 0,-13.1534 z m 16.98844,0 13.151524,0 0,29.0445 -13.151524,0 0,-29.0445 z m 18.083981,0 13.151517,0 0,13.1534 -13.151517,0 0,-13.1534 z"
         id="path4164-6-9-5"
         inkscape:connector-curvature="0" />
    </g>
  </g>
</svg>
