<?xml version="1.0" encoding="UTF-8" standalone="no"?>
<!-- Created with Inkscape (http://www.inkscape.org/) -->

<svg
   xmlns:dc="http://purl.org/dc/elements/1.1/"
   xmlns:cc="http://creativecommons.org/ns#"
   xmlns:rdf="http://www.w3.org/1999/02/22-rdf-syntax-ns#"
   xmlns:svg="http://www.w3.org/2000/svg"
   xmlns="http://www.w3.org/2000/svg"
   xmlns:sodipodi="http://sodipodi.sourceforge.net/DTD/sodipodi-0.dtd"
   xmlns:inkscape="http://www.inkscape.org/namespaces/inkscape"
   width="100"
   height="100"
   id="svg2"
   version="1.1"
   inkscape:version="0.91 r13725"
   sodipodi:docname="Company.svg">
  <defs
     id="defs4" />
  <sodipodi:namedview
     id="base"
     pagecolor="#ffffff"
     bordercolor="#666666"
     borderopacity="1.0"
     inkscape:pageopacity="0.0"
     inkscape:pageshadow="2"
     inkscape:zoom="3.9597979"
     inkscape:cx="26.582457"
     inkscape:cy="59.914992"
     inkscape:document-units="px"
     inkscape:current-layer="layer1"
     showgrid="false"
     units="px"
     inkscape:window-width="1920"
     inkscape:window-height="1018"
     inkscape:window-x="-8"
     inkscape:window-y="-8"
     inkscape:window-maximized="1" />
  <metadata
     id="metadata7">
    <rdf:RDF>
      <cc:Work
         rdf:about="">
        <dc:format>image/svg+xml</dc:format>
        <dc:type
           rdf:resource="http://purl.org/dc/dcmitype/StillImage" />
        <dc:title />
      </cc:Work>
    </rdf:RDF>
  </metadata>
  <g
     inkscape:label="Ebene 1"
     inkscape:groupmode="layer"
     id="layer1"
     transform="translate(0,-952.3622)">
    <path
       style="opacity:1;fill:#000000;fill-opacity:1;stroke:none;stroke-width:26.39999962;stroke-linecap:butt;stroke-linejoin:miter;stroke-miterlimit:4;stroke-dasharray:105.6, 26.39999999999999900;stroke-dashoffset:0;stroke-opacity:1"
       d="M 25.806641 0 C 20.446053 0 16.130859 4.315192 16.130859 9.6757812 L 16.130859 99.917969 C 16.130859 99.944969 16.134766 99.973 16.134766 100 L 83.863281 100 C 83.863559 99.973 83.869141 99.944969 83.869141 99.917969 L 83.869141 9.6757812 C 83.869141 4.315192 79.553947 0 74.193359 0 L 25.8125 0 L 25.806641 0 z M 22.566406 17.330078 L 37.642578 17.330078 L 37.642578 32.40625 L 22.566406 32.40625 L 22.566406 17.330078 z M 42.041016 17.330078 L 57.117188 17.330078 L 57.117188 32.40625 L 42.041016 32.40625 L 42.041016 17.330078 z M 62.771484 17.330078 L 77.847656 17.330078 L 77.847656 32.40625 L 62.771484 32.40625 L 62.771484 17.330078 z M 22.566406 38.3125 L 37.642578 38.3125 L 37.642578 53.388672 L 22.566406 53.388672 L 22.566406 38.3125 z M 42.041016 38.3125 L 57.117188 38.3125 L 57.117188 53.388672 L 42.041016 53.388672 L 42.041016 38.3125 z M 62.771484 38.3125 L 77.847656 38.3125 L 77.847656 53.388672 L 62.771484 53.388672 L 62.771484 38.3125 z M 22.566406 60.171875 L 37.642578 60.171875 L 37.642578 75.25 L 22.566406 75.25 L 22.566406 60.171875 z M 42.041016 60.171875 L 57.117188 60.171875 L 57.117188 93.466797 L 42.041016 93.466797 L 42.041016 60.171875 z M 62.771484 60.171875 L 77.847656 60.171875 L 77.847656 75.25 L 62.771484 75.25 L 62.771484 60.171875 z "
       id="rect4417-1-6-9"
       transform="translate(0,952.3622)" />
  </g>
</svg>
