<?xml version="1.0" encoding="UTF-8" standalone="no"?>
<!-- Created with Inkscape (http://www.inkscape.org/) -->

<svg
   xmlns:dc="http://purl.org/dc/elements/1.1/"
   xmlns:cc="http://creativecommons.org/ns#"
   xmlns:rdf="http://www.w3.org/1999/02/22-rdf-syntax-ns#"
   xmlns:svg="http://www.w3.org/2000/svg"
   xmlns="http://www.w3.org/2000/svg"
   xmlns:sodipodi="http://sodipodi.sourceforge.net/DTD/sodipodi-0.dtd"
   xmlns:inkscape="http://www.inkscape.org/namespaces/inkscape"
   width="100"
   height="36"
   viewBox="0 0 99.999997 36"
   id="svg2"
   version="1.1"
   inkscape:version="0.91 r13725"
   sodipodi:docname="Logo.svg">
  <defs
     id="defs4" />
  <sodipodi:namedview
     id="base"
     pagecolor="#ffffff"
     bordercolor="#666666"
     borderopacity="1.0"
     inkscape:pageopacity="0.0"
     inkscape:pageshadow="2"
     inkscape:zoom="11.2"
     inkscape:cx="49.721545"
     inkscape:cy="23.274204"
     inkscape:document-units="px"
     inkscape:current-layer="layer1"
     showgrid="false"
     inkscape:window-width="1920"
     inkscape:window-height="1018"
     inkscape:window-x="-8"
     inkscape:window-y="-8"
     inkscape:window-maximized="1"
     units="px"
     fit-margin-top="0"
     fit-margin-left="0"
     fit-margin-right="0"
     fit-margin-bottom="0" />
  <metadata
     id="metadata7">
    <rdf:RDF>
      <cc:Work
         rdf:about="">
        <dc:format>image/svg+xml</dc:format>
        <dc:type
           rdf:resource="http://purl.org/dc/dcmitype/StillImage" />
        <dc:title></dc:title>
      </cc:Work>
    </rdf:RDF>
  </metadata>
  <g
     inkscape:label="Ebene 1"
     inkscape:groupmode="layer"
     id="layer1"
     transform="translate(1.5160394e-4,-983.9733)">
    <path
       style="font-style:italic;font-variant:normal;font-weight:normal;font-stretch:semi-expanded;font-size:medium;line-height:125%;font-family:'Republica Minor';-inkscape-font-specification:'Republica Minor Italic Semi-Expanded';letter-spacing:0px;word-spacing:0px;fill:#000000;fill-opacity:1;stroke:none;stroke-width:1px;stroke-linecap:butt;stroke-linejoin:miter;stroke-opacity:1"
       d="m 67.719445,984.36214 -1.027539,5.82852 -0.104611,0.59361 -3.946134,22.37813 -0.185697,1.0542 -0.946453,5.3679 8.659821,0 1.132151,-6.4221 -2.531712,0 3.946128,-22.37813 2.531716,0 1.132151,-6.42213 -8.659821,0 z m 9.588323,0 -1.132154,6.42213 3.335795,0 -5.078279,28.80023 6.447512,0 5.07828,-28.80023 3.331462,0 1.132154,-6.42213 -13.11477,0 z m 14.032129,0 -1.132154,6.42213 2.528002,0 -3.946133,22.37813 -2.531713,0 -1.132151,6.4221 8.659823,0 1.13215,-6.4221 3.946129,-22.37813 0.004,0 1.132149,-6.42213 -8.659818,0 z m -45.836387,6.37943 c -0.761627,0 -1.41964,0.088 -1.974614,0.26369 -0.553971,0.16998 -1.027747,0.45329 -1.420605,0.84988 -0.392865,0.39659 -0.718097,0.92071 -0.976165,1.57227 -0.25708,0.64588 -0.469977,1.44732 -0.638811,2.40482 l -0.285977,1.59764 6.009261,0 0.128751,-0.73042 c 0.11394,-0.62889 0.265872,-1.08233 0.454965,-1.35994 0.192134,-0.27762 0.450871,-0.41659 0.776848,-0.41659 0.322933,0 0.536959,0.12759 0.641282,0.38254 0.107052,0.25495 0.09933,0.71977 -0.02228,1.39399 l -0.348497,1.95417 -6.34e-4,0 -3.738145,0 c -2.697825,0.13032 -4.538098,2.39688 -5.521489,6.79918 -0.432135,2.9517 -0.385845,4.9686 0.139274,6.0507 0.529188,1.0764 1.495505,1.5921 2.898782,1.5468 l 9.829731,0 3.039914,-17.21807 c 0.1608,-0.92917 0.227007,-1.71924 0.198699,-2.37077 -0.02526,-0.65156 -0.165019,-1.18167 -0.419062,-1.5896 -0.254051,-0.40793 -0.628222,-0.69662 -1.12225,-0.8666 -0.493039,-0.17562 -1.120132,-0.26369 -1.881762,-0.26369 l -5.767229,0 z m 19.606848,0.002 c -1.249459,-0.008 -2.283089,0.59724 -3.100575,1.81676 l 0.307642,-1.74186 -6.014209,0 -3.920132,22.23203 6.201147,0 2.095318,-11.881 c 0.588257,-2.69696 1.877198,-4.05668 3.867518,-4.07931 l 1.111725,-6.30577 c -0.187311,-0.0262 -0.369941,-0.0397 -0.548434,-0.0409 z m -28.575551,6.4e-4 c -0.1586,-0.007 -0.32398,-0.005 -0.495822,0.006 l -17.561668,0 -3.931893,22.30009 6.132441,0 2.748361,-15.5864 c 0.105896,-0.60055 0.251113,-1.03361 0.435159,-1.2999 0.184046,-0.2663 0.426956,-0.39988 0.728562,-0.39988 0.572743,0 0.758761,0.56664 0.55896,1.69978 l -2.747744,15.5864 6.059398,0 2.748362,-15.5864 c 0.105895,-0.60055 0.250494,-1.03361 0.434537,-1.2999 0.184047,-0.2663 0.425673,-0.39988 0.724232,-0.39988 0.575793,0 0.763712,0.56664 0.563911,1.69978 l -2.748365,15.5864 6.132441,0 2.815837,-15.96832 c 0.37163,-2.10763 0.291706,-3.71112 -0.239555,-4.81026 -0.461323,-0.96669 -1.246964,-1.47625 -2.357154,-1.52769 z m -29.0478526,0.0657 c -0.7616265,0 -1.4202601,0.088 -1.9752308,0.26369 -0.5539783,0.16998 -1.0271333,0.45331 -1.4199879,0.8499 -0.3918662,0.39093 -0.7181409,0.91203 -0.9792577,1.56359 -0.257071,0.64588 -0.4697421,1.44495 -0.6375714,2.39677 l -0.3633557,2.0817 c -0.2398039,1.34274 -0.2237389,2.34014 0.048287,2.99164 0.2730178,0.6459 0.9232598,1.2353 1.9504691,1.7678 l 3.3116539,1.6404 c 0.875693,0.459 1.225652,1.1867 1.049827,2.1838 l -0.104613,0.595 c -0.102842,0.6005 -0.248059,1.0341 -0.435155,1.3004 -0.184047,0.2663 -0.425051,0.3993 -0.7236111,0.3993 -0.5757925,0 -0.7637152,-0.5667 -0.5639109,-1.6997 l 0.3249751,-1.8441 -6.26985787,0 -0.4797281,2.7447 c -0.1708848,0.9518 -0.2424751,1.7539 -0.2141741,2.4054 0.02928,0.6458 0.1678139,1.167 0.4147334,1.5636 0.2509407,0.3909 0.62302077,0.6743 1.11605637,0.8499 0.4940312,0.17 1.1213721,0.255 1.8830017,0.255 l 6.0643485,0 c 0.7616371,0 1.4194121,-0.085 1.9733751,-0.255 0.55497,-0.1756 1.029215,-0.4643 1.423084,-0.8666 0.397903,-0.4079 0.724809,-0.9296 0.979879,-1.5642 0.256399,-0.6403 0.469483,-1.4363 0.640047,-2.3881 l 6.34e-4,0 0.472299,-2.6766 c 0.273728,-1.5524 0.233725,-2.7114 -0.118848,-3.4763 -0.336394,-0.7876 -1.144771,-1.5152 -2.425247,-2.18384 l -2.4741462,-1.25781 c -0.3467509,-0.15862 -0.6200989,-0.31135 -0.8195579,-0.45869 -0.195437,-0.1529 -0.337899,-0.31163 -0.42773,-0.47602 -0.08678,-0.1643 -0.132191,-0.33742 -0.136798,-0.51872 -0.0039,-0.18697 0.01315,-0.39662 0.05138,-0.6289 0.06494,-0.36827 0.198682,-0.66834 0.401114,-0.90065 0.202422,-0.23228 0.428607,-0.34849 0.678423,-0.34849 0.5730671,0 0.7609861,0.56665 0.5639111,1.69977 l -0.09904,0.56081 6.214767,0 0.259983,-1.4955 c 0.163836,-0.92917 0.231098,-1.71684 0.201794,-2.36273 -0.0283,-0.65154 -0.170206,-1.17865 -0.425255,-1.58092 -0.25101,-0.40792 -0.623268,-0.69663 -1.117295,-0.86661 -0.493027,-0.17564 -1.120745,-0.26369 -1.882384,-0.26369 l -5.9312641,0 z m 39.6135766,12.33979 -0.608477,3.4504 c -0.110894,0.6288 -0.273079,1.0823 -0.486536,1.3599 -0.210422,0.2776 -0.476812,0.4166 -0.79975,0.4166 -0.624533,0 -0.832745,-0.5925 -0.623952,-1.7765 l 0.08543,-0.4841 c 0.121934,-0.6743 0.289982,-1.184 0.503246,-1.5296 0.217309,-0.3512 0.549494,-0.6549 0.996595,-0.9099 l 0.933452,-0.5268 z"
       id="path4484-4"
       inkscape:connector-curvature="0" />
  </g>
</svg>
