<?xml version="1.0" encoding="UTF-8" standalone="no"?>
<!-- Created with Inkscape (http://www.inkscape.org/) -->

<svg
   xmlns:dc="http://purl.org/dc/elements/1.1/"
   xmlns:cc="http://creativecommons.org/ns#"
   xmlns:rdf="http://www.w3.org/1999/02/22-rdf-syntax-ns#"
   xmlns:svg="http://www.w3.org/2000/svg"
   xmlns="http://www.w3.org/2000/svg"
   xmlns:sodipodi="http://sodipodi.sourceforge.net/DTD/sodipodi-0.dtd"
   xmlns:inkscape="http://www.inkscape.org/namespaces/inkscape"
   width="100"
   height="100"
   id="svg2"
   version="1.1"
   inkscape:version="0.91 r13725"
   sodipodi:docname="Order.svg">
  <defs
     id="defs4" />
  <sodipodi:namedview
     id="base"
     pagecolor="#ffffff"
     bordercolor="#666666"
     borderopacity="1.0"
     inkscape:pageopacity="0.0"
     inkscape:pageshadow="2"
     inkscape:zoom="1.979899"
     inkscape:cx="-117.40189"
     inkscape:cy="-8.2096973"
     inkscape:document-units="px"
     inkscape:current-layer="layer1"
     showgrid="false"
     units="px"
     inkscape:window-width="1920"
     inkscape:window-height="1018"
     inkscape:window-x="-8"
     inkscape:window-y="-8"
     inkscape:window-maximized="1" />
  <metadata
     id="metadata7">
    <rdf:RDF>
      <cc:Work
         rdf:about="">
        <dc:format>image/svg+xml</dc:format>
        <dc:type
           rdf:resource="http://purl.org/dc/dcmitype/StillImage" />
        <dc:title></dc:title>
      </cc:Work>
    </rdf:RDF>
  </metadata>
  <g
     inkscape:label="Ebene 1"
     inkscape:groupmode="layer"
     id="layer1"
     transform="translate(0,-952.3622)">
    <path
       style="opacity:1;fill:#000000;fill-opacity:1;stroke:none;stroke-width:26.39999962;stroke-linecap:butt;stroke-linejoin:miter;stroke-miterlimit:4;stroke-dasharray:105.6, 26.4;stroke-dashoffset:0;stroke-opacity:1"
       d="m 23.038158,952.3622 c -6.773832,0 -12.226668,5.455 -12.226668,12.23 l 0,75.54 c 0,6.775 5.452836,12.23 12.226668,12.23 l 53.92271,0 c 6.773827,0 12.227642,-5.455 12.227642,-12.23 l 0,-75.54 c 0,-6.775 -5.453815,-12.23 -12.227642,-12.23 l -53.92271,0 z m 4.479252,17.0475 45.260605,0 c 0.374225,0 0.730475,0 1.054,0.35 0.32345,0.35 0.6145,0.35 0.858725,0.575 0.245,0.35 0.44175,0.55 0.578025,0.85 0.1375,0.35 0.2125,0.675 0.2125,1.05 0,0.375 -0.075,0.7 -0.2125,1.05 -0.1375,0.35 -0.33365,0.6 -0.578025,0.85 -0.245,0.325 -0.53525,0.45 -0.858725,0.575 -0.32345,0.35 -0.679725,0.35 -1.054,0.35 l -45.260605,0 c -0.374225,0 -0.7305,0 -1.054,-0.35 -0.32345,-0.35 -0.6145,-0.35 -0.85875,-0.575 -0.245,-0.35 -0.44175,-0.5 -0.577975,-0.85 -0.1375,-0.35 -0.2125,-0.675 -0.2125,-1.05 0,-0.375 0.075,-0.725 0.2125,-1.05 0.1375,-0.35 0.33365,-0.6 0.577975,-0.85 0.245,-0.35 0.53525,-0.45 0.85875,-0.575 0.32345,-0.35 0.679725,-0.35 1.054,-0.35 z m 0,16.7275 37.97446,0 c 0.374225,0 0.7305,0 1.054,0.35 0.32345,0.35 0.6145,0.35 0.858725,0.575 0.245,0.35 0.44175,0.5 0.578025,0.85 0.1375,0.35 0.2125,0.675 0.2125,1.05 0,0.375 -0.075,0.725 -0.2125,1.05 -0.1375,0.35 -0.33365,0.6 -0.578025,0.85 -0.245,0.35 -0.53525,0.45 -0.858725,0.575 -0.32345,0.35 -0.679725,0.35 -1.054,0.35 l -37.974462,0 c -0.374225,0 -0.7305,0 -1.054,-0.35 -0.32345,-0.35 -0.6145,-0.35 -0.85875,-0.575 -0.245,-0.35 -0.44175,-0.5 -0.577975,-0.85 -0.1375,-0.35 -0.2125,-0.675 -0.2125,-1.05 0,-0.375 0.075,-0.7 0.2125,-1.05 0.1375,-0.35 0.33365,-0.6 0.577975,-0.85 0.245,-0.35 0.53525,-0.45 0.85875,-0.575 0.32345,-0.35 0.679725,-0.35 1.054,-0.35 z m 0,16.725 21.969308,0 c 0.374275,0 0.730475,0 1.054,0.35 0.32345,0.35 0.6145,0.35 0.85875,0.575 0.245,0.35 0.44175,0.5 0.577975,0.85 0.1375,0.35 0.2125,0.675 0.2125,1.05 0,0.375 -0.075,0.7 -0.2125,1.05 -0.1375,0.35 -0.33365,0.6 -0.577975,0.85 -0.245,0.35 -0.53525,0.45 -0.85875,0.575 -0.32345,0.35 -0.679725,0.35 -1.054,0.35 l -21.969308,0 c -0.374225,0 -0.7305,0 -1.054,-0.35 -0.32345,-0.35 -0.6145,-0.35 -0.85875,-0.575 -0.245,-0.35 -0.44175,-0.5 -0.577975,-0.85 -0.1375,-0.35 -0.2125,-0.675 -0.2125,-1.05 0,-0.375 0.075,-0.725 0.2125,-1.05 0.1375,-0.35 0.33365,-0.6 0.577975,-0.85 0.245,-0.35 0.53525,-0.45 0.85875,-0.575 0.32345,-0.35 0.679725,-0.35 1.054,-0.35 z m 0,16.73 10.801605,0 c 0.374225,0 0.7305,0 1.054,0.35 0.32345,0.35 0.6145,0.35 0.85875,0.575 0.245,0.35 0.44175,0.55 0.578025,0.85 0.1375,0.35 0.2125,0.675 0.2125,1.05 0,0.375 -0.075,0.7 -0.2125,1.05 -0.1375,0.35 -0.33365,0.6 -0.578025,0.85 -0.245,0.35 -0.53525,0.45 -0.85875,0.575 -0.32345,0.35 -0.679725,0.35 -1.054,0.35 l -10.801605,0 c -0.374225,0 -0.7305,0 -1.054,-0.35 -0.32345,-0.35 -0.6145,-0.35 -0.85875,-0.575 -0.245,-0.35 -0.44175,-0.5 -0.577975,-0.85 -0.1375,-0.35 -0.2125,-0.675 -0.2125,-1.05 0,-0.375 0.075,-0.725 0.2125,-1.05 0.1375,-0.35 0.33365,-0.6 0.577975,-0.85 0.245,-0.35 0.53525,-0.45 0.85875,-0.575 0.32345,-0.35 0.679725,-0.35 1.054,-0.35 z"
       id="rect4649-3-9-0"
       inkscape:connector-curvature="0" />
  </g>
</svg>
