<?xml version="1.0" encoding="UTF-8" standalone="no"?>
<!-- Created with Inkscape (http://www.inkscape.org/) -->

<svg
   xmlns:dc="http://purl.org/dc/elements/1.1/"
   xmlns:cc="http://creativecommons.org/ns#"
   xmlns:rdf="http://www.w3.org/1999/02/22-rdf-syntax-ns#"
   xmlns:svg="http://www.w3.org/2000/svg"
   xmlns="http://www.w3.org/2000/svg"
   xmlns:sodipodi="http://sodipodi.sourceforge.net/DTD/sodipodi-0.dtd"
   xmlns:inkscape="http://www.inkscape.org/namespaces/inkscape"
   width="100"
   height="100"
   id="svg2"
   version="1.1"
   inkscape:version="0.91 r13725"
   sodipodi:docname="Restrictions.svg">
  <defs
     id="defs4" />
  <sodipodi:namedview
     id="base"
     pagecolor="#ffffff"
     bordercolor="#666666"
     borderopacity="1.0"
     inkscape:pageopacity="0.0"
     inkscape:pageshadow="2"
     inkscape:zoom="3.959798"
     inkscape:cx="-25.099225"
     inkscape:cy="31.161126"
     inkscape:document-units="px"
     inkscape:current-layer="layer1"
     showgrid="false"
     units="px"
     inkscape:window-width="1920"
     inkscape:window-height="1018"
     inkscape:window-x="-8"
     inkscape:window-y="-8"
     inkscape:window-maximized="1" />
  <metadata
     id="metadata7">
    <rdf:RDF>
      <cc:Work
         rdf:about="">
        <dc:format>image/svg+xml</dc:format>
        <dc:type
           rdf:resource="http://purl.org/dc/dcmitype/StillImage" />
        <dc:title></dc:title>
      </cc:Work>
    </rdf:RDF>
  </metadata>
  <g
     inkscape:label="Ebene 1"
     inkscape:groupmode="layer"
     id="layer1"
     transform="translate(0,-952.3622)">
    <g
       id="g4150"
       transform="matrix(0.46588969,0,0,0.46588969,48.232115,514.73972)">
      <path
         inkscape:connector-curvature="0"
         id="rect5403-9-9"
         d="m 48.441642,939.32639 c -2.97009,0 -5.36132,2.3912 -5.36132,5.3613 l 0,54.2774 c -1e-5,2.97011 2.39123,5.36131 5.36132,5.36131 l 54.277348,0 c 2.97009,0 5.36133,-2.3912 5.36133,-5.36131 l 0,-54.2774 c 0,-2.9701 -2.39124,-5.3613 -5.36133,-5.3613 l -54.277348,0 z m 10.04688,8.5703 17.0918,17.0918 17.09179,-17.0918 6.83789,6.8379 -17.09179,17.0918 17.09179,17.0918 -6.83789,6.8359 -17.09179,-17.0898 -17.0918,17.0898 -6.83594,-6.8359 17.08984,-17.0918 -17.08984,-17.0918 6.83594,-6.8379 z"
         style="opacity:1;fill:#000000;fill-opacity:1;stroke:none;stroke-width:3;stroke-linecap:butt;stroke-linejoin:miter;stroke-miterlimit:4;stroke-dasharray:none;stroke-dashoffset:0;stroke-opacity:1" />
      <rect
         ry="4.3360691"
         y="962.18365"
         x="-100.49161"
         height="16.428572"
         width="125.85714"
         id="rect5477-3-5"
         style="opacity:1;fill:#000000;fill-opacity:1;stroke:none;stroke-width:3;stroke-linecap:butt;stroke-linejoin:miter;stroke-miterlimit:4;stroke-dasharray:none;stroke-dashoffset:0;stroke-opacity:1" />
      <path
         inkscape:connector-curvature="0"
         id="rect5403-2-0-5"
         d="m 48.441642,1014.1487 c -2.97009,0 -5.36132,2.3912 -5.36132,5.3613 l 0,54.2773 c -1e-5,2.9701 2.39123,5.3614 5.36132,5.3614 l 54.277348,0 c 2.97009,0 5.36133,-2.3913 5.36133,-5.3614 l 0,-54.2773 c 0,-2.9701 -2.39124,-5.3613 -5.36133,-5.3613 l -54.277348,0 z m 10.04688,8.5703 17.0918,17.0918 17.09179,-17.0918 6.83789,6.8379 -17.09179,17.0918 17.09179,17.0898 -6.83789,6.8379 -17.09179,-17.0918 -17.0918,17.0918 -6.83594,-6.8379 17.0918,-17.0898 -17.0918,-17.0918 6.83594,-6.8379 z"
         style="opacity:1;fill:#000000;fill-opacity:1;stroke:none;stroke-width:3;stroke-linecap:butt;stroke-linejoin:miter;stroke-miterlimit:4;stroke-dasharray:none;stroke-dashoffset:0;stroke-opacity:1" />
      <rect
         ry="5.3611722"
         y="1088.9695"
         x="43.080902"
         height="64.999992"
         width="64.999992"
         id="rect5403-1-7-9"
         style="opacity:1;fill:#000000;fill-opacity:1;stroke:none;stroke-width:3;stroke-linecap:butt;stroke-linejoin:miter;stroke-miterlimit:4;stroke-dasharray:none;stroke-dashoffset:0;stroke-opacity:1" />
      <rect
         ry="4.3360691"
         y="1038.2552"
         x="-100.49161"
         height="16.428572"
         width="125.85714"
         id="rect5477-9-3-5"
         style="opacity:1;fill:#000000;fill-opacity:1;stroke:none;stroke-width:3;stroke-linecap:butt;stroke-linejoin:miter;stroke-miterlimit:4;stroke-dasharray:none;stroke-dashoffset:0;stroke-opacity:1" />
      <rect
         ry="4.3360691"
         y="1111.8265"
         x="-100.49161"
         height="16.428572"
         width="125.85714"
         id="rect5477-4-0-8"
         style="opacity:1;fill:#000000;fill-opacity:1;stroke:none;stroke-width:3;stroke-linecap:butt;stroke-linejoin:miter;stroke-miterlimit:4;stroke-dasharray:none;stroke-dashoffset:0;stroke-opacity:1" />
    </g>
  </g>
</svg>
