<?xml version="1.0" encoding="UTF-8" standalone="no"?>
<!-- Created with Inkscape (http://www.inkscape.org/) -->

<svg
   xmlns:dc="http://purl.org/dc/elements/1.1/"
   xmlns:cc="http://creativecommons.org/ns#"
   xmlns:rdf="http://www.w3.org/1999/02/22-rdf-syntax-ns#"
   xmlns:svg="http://www.w3.org/2000/svg"
   xmlns="http://www.w3.org/2000/svg"
   xmlns:sodipodi="http://sodipodi.sourceforge.net/DTD/sodipodi-0.dtd"
   xmlns:inkscape="http://www.inkscape.org/namespaces/inkscape"
   width="100"
   height="100"
   id="svg2"
   version="1.1"
   inkscape:version="0.91 r13725"
   sodipodi:docname="Tour.svg">
  <defs
     id="defs4" />
  <sodipodi:namedview
     id="base"
     pagecolor="#ffffff"
     bordercolor="#666666"
     borderopacity="1.0"
     inkscape:pageopacity="0.0"
     inkscape:pageshadow="2"
     inkscape:zoom="3.959798"
     inkscape:cx="43.657179"
     inkscape:cy="61.982723"
     inkscape:document-units="px"
     inkscape:current-layer="layer1"
     showgrid="false"
     units="px"
     inkscape:window-width="1920"
     inkscape:window-height="1018"
     inkscape:window-x="-8"
     inkscape:window-y="-8"
     inkscape:window-maximized="1" />
  <metadata
     id="metadata7">
    <rdf:RDF>
      <cc:Work
         rdf:about="">
        <dc:format>image/svg+xml</dc:format>
        <dc:type
           rdf:resource="http://purl.org/dc/dcmitype/StillImage" />
        <dc:title />
      </cc:Work>
    </rdf:RDF>
  </metadata>
  <g
     inkscape:label="Ebene 1"
     inkscape:groupmode="layer"
     id="layer1"
     transform="translate(0,-952.3622)">
    <path
       style="opacity:1;fill:#000000;fill-opacity:1;stroke:none;stroke-width:13;stroke-linecap:butt;stroke-linejoin:miter;stroke-miterlimit:4;stroke-dasharray:none;stroke-dashoffset:0;stroke-opacity:1"
       d="M 33.25 0 L 24.408203 14.341797 L 10.066406 5.5019531 L 3.0371094 16.90625 L 17.378906 25.746094 L 8.5371094 40.089844 L 19.941406 47.119141 L 28.783203 32.777344 L 43.125 41.619141 L 50.15625 30.212891 L 35.814453 21.373047 L 44.654297 7.0292969 L 33.25 0 z M 83.224609 2.5878906 L 81.990234 2.5898438 L 81.890625 2.5898438 L 81.792969 2.5957031 L 80.447266 2.671875 L 80.361328 2.6757812 L 80.277344 2.6855469 L 78.818359 2.8378906 L 78.744141 2.8457031 L 78.669922 2.8554688 L 77.095703 3.0878906 L 77.03125 3.0957031 L 76.966797 3.1074219 L 75.273438 3.4199219 L 75.216797 3.4316406 L 75.160156 3.4433594 L 73.345703 3.8378906 L 73.294922 3.8496094 L 73.246094 3.8613281 L 71.308594 4.3417969 L 71.263672 4.3535156 L 71.21875 4.3652344 L 69.15625 4.9335938 L 69.117188 4.9453125 L 69.078125 4.9570312 L 66.886719 5.6152344 L 66.833984 5.6308594 L 66.783203 5.6484375 L 66.4375 5.7636719 L 68.705078 12.550781 L 68.988281 12.455078 L 71.136719 11.810547 L 73.078125 11.275391 L 73.121094 11.263672 L 74.910156 10.820312 L 76.662109 10.439453 L 76.683594 10.435547 L 78.246094 10.150391 L 78.263672 10.146484 L 79.613281 9.9492188 L 80.935547 9.8125 L 82.09375 9.7460938 L 83.101562 9.7441406 L 84.005859 9.8007812 L 84.720703 9.9003906 L 85.314453 10.033203 L 85.761719 10.185547 L 86.072266 10.332031 L 86.273438 10.460938 L 86.394531 10.566406 L 86.466797 10.652344 L 86.523438 10.748047 L 86.580078 10.882812 L 86.628906 11.078125 L 86.664062 11.367188 L 86.667969 11.771484 L 86.625 12.267578 L 86.53125 12.8125 L 86.416016 13.285156 L 93.367188 14.990234 L 93.509766 14.410156 L 93.539062 14.285156 L 93.560547 14.160156 L 93.705078 13.3125 L 93.730469 13.166016 L 93.744141 13.017578 L 93.8125 12.210938 L 93.828125 12.039062 L 93.826172 11.867188 L 93.818359 11.103516 L 93.816406 10.904297 L 93.791016 10.707031 L 93.705078 9.9882812 L 93.675781 9.7636719 L 93.621094 9.5429688 L 93.451172 8.8730469 L 93.388672 8.6289062 L 93.292969 8.3945312 L 93.037109 7.7734375 L 92.933594 7.5214844 L 92.792969 7.2890625 L 92.451172 6.7207031 L 92.306641 6.4804688 L 92.125 6.2636719 L 91.695312 5.7519531 L 91.517578 5.5390625 L 91.308594 5.3574219 L 90.785156 4.9003906 L 90.589844 4.7285156 L 90.371094 4.5878906 L 89.751953 4.1894531 L 89.554688 4.0625 L 89.341797 3.9609375 L 88.626953 3.625 L 88.439453 3.5351562 L 88.242188 3.46875 L 87.427734 3.1953125 L 87.257812 3.1386719 L 87.082031 3.0976562 L 86.166016 2.8886719 L 86.015625 2.8554688 L 85.861328 2.8339844 L 84.841797 2.6933594 L 84.710938 2.6757812 L 84.578125 2.6660156 L 83.453125 2.5957031 L 83.337891 2.5878906 L 83.224609 2.5878906 z M 59.564453 8.1503906 L 56.574219 9.265625 L 56.525391 9.2832031 L 56.478516 9.3027344 L 50.599609 11.6875 L 50.558594 11.705078 L 50.519531 11.722656 L 44.0625 14.529297 L 46.916016 21.091797 L 53.373047 18.285156 L 59.123047 15.951172 L 62.0625 14.857422 L 59.564453 8.1503906 z M 83.892578 18.851562 L 83.414062 19.671875 L 82.041016 21.769531 L 80.4375 23.996094 L 80.416016 24.025391 L 78.6875 26.240234 L 76.767578 28.544922 L 74.685547 30.892578 L 74.664062 30.917969 L 72.498047 33.230469 L 72.478516 33.251953 L 70.199219 35.560547 L 70.191406 35.568359 L 67.826172 37.847656 L 65.917969 39.599609 L 70.757812 44.869141 L 72.730469 43.058594 L 72.763672 43.029297 L 72.794922 42.998047 L 75.224609 40.65625 L 75.255859 40.625 L 75.287109 40.591797 L 77.636719 38.208984 L 77.669922 38.175781 L 77.701172 38.142578 L 79.955078 35.736328 L 79.988281 35.701172 L 80.021484 35.664062 L 82.15625 33.251953 L 82.191406 33.212891 L 82.226562 33.171875 L 84.224609 30.773438 L 84.263672 30.728516 L 84.300781 30.681641 L 86.142578 28.314453 L 86.185547 28.261719 L 86.224609 28.205078 L 87.892578 25.888672 L 87.939453 25.824219 L 87.982422 25.757812 L 89.457031 23.505859 L 89.509766 23.425781 L 89.556641 23.34375 L 90.078125 22.449219 L 83.892578 18.851562 z M 60.625 44.144531 L 60.472656 44.269531 L 60.458984 44.28125 L 57.984375 46.224609 L 57.974609 46.232422 L 57.964844 46.240234 L 54.916016 48.671875 L 54.857422 48.716797 L 54.800781 48.765625 L 51.896484 51.287109 L 51.841797 51.333984 L 51.789062 51.382812 L 49.035156 53.976562 L 48.982422 54.025391 L 48.931641 54.076172 L 46.337891 56.722656 L 46.287109 56.773438 L 46.240234 56.826172 L 43.8125 59.509766 L 43.763672 59.564453 L 43.716797 59.621094 L 41.464844 62.322266 L 41.416016 62.378906 L 41.371094 62.4375 L 39.671875 64.658203 L 45.353516 69.007812 L 47.003906 66.851562 L 49.173828 64.248047 L 51.476562 61.705078 L 53.990234 59.140625 L 56.632812 56.652344 L 59.441406 54.216797 L 62.40625 51.853516 L 62.425781 51.837891 L 64.955078 49.849609 L 64.994141 49.818359 L 65.029297 49.789062 L 65.195312 49.652344 L 60.625 44.144531 z M 86.832031 67.916016 A 10.130656 10.130656 0 0 0 76.701172 78.046875 A 10.130656 10.130656 0 0 0 86.832031 88.177734 A 10.130656 10.130656 0 0 0 96.962891 78.046875 A 10.130656 10.130656 0 0 0 86.832031 67.916016 z M 35.408203 71.003906 L 33.998047 73.492188 L 33.951172 73.576172 L 33.908203 73.664062 L 32.650391 76.195312 L 32.601562 76.292969 L 32.558594 76.392578 L 31.525391 78.837891 L 31.476562 78.953125 L 31.435547 79.070312 L 30.630859 81.410156 L 30.597656 81.511719 L 30.568359 81.615234 L 30.255859 82.740234 L 30.234375 82.816406 L 30.216797 82.894531 L 29.962891 83.988281 L 29.943359 84.072266 L 29.927734 84.158203 L 29.738281 85.216797 L 29.720703 85.310547 L 29.708984 85.404297 L 29.580078 86.425781 L 29.568359 86.53125 L 29.560547 86.636719 L 29.496094 87.619141 L 29.488281 87.736328 L 29.488281 87.853516 L 29.488281 88.794922 L 29.488281 88.925781 L 29.498047 89.056641 L 29.564453 89.953125 L 29.574219 90.097656 L 29.597656 90.240234 L 29.728516 91.091797 L 29.753906 91.25 L 29.792969 91.40625 L 29.992188 92.208984 L 30.035156 92.380859 L 30.095703 92.546875 L 30.363281 93.298828 L 30.427734 93.480469 L 30.511719 93.654297 L 30.849609 94.353516 L 30.939453 94.537109 L 31.048828 94.710938 L 31.458984 95.357422 L 31.572266 95.539062 L 31.708984 95.705078 L 32.189453 96.292969 L 32.328125 96.462891 L 32.486328 96.615234 L 33.041016 97.144531 L 33.197266 97.294922 L 33.373047 97.425781 L 34 97.892578 L 34.169922 98.019531 L 34.353516 98.126953 L 35.054688 98.53125 L 35.228516 98.630859 L 35.412109 98.710938 L 36.1875 99.048828 L 36.359375 99.123047 L 36.537109 99.179688 L 37.388672 99.451172 L 37.550781 99.501953 L 37.71875 99.537109 L 38.648438 99.738281 L 38.798828 99.769531 L 38.951172 99.789062 L 39.693359 99.884766 L 40.595703 92.785156 L 40.013672 92.710938 L 39.398438 92.580078 L 38.875 92.414062 L 38.449219 92.228516 L 38.113281 92.035156 L 37.826172 91.820312 L 37.601562 91.605469 L 37.384766 91.339844 L 37.203125 91.052734 L 37.039062 90.714844 L 36.890625 90.300781 L 36.777344 89.839844 L 36.689453 89.285156 L 36.644531 88.666016 L 36.644531 87.96875 L 36.693359 87.220703 L 36.796875 86.384766 L 36.957031 85.507812 L 37.167969 84.585938 L 37.4375 83.625 L 38.158203 81.525391 L 39.101562 79.291016 L 40.263672 76.953125 L 41.634766 74.529297 L 35.408203 71.003906 z M 71.330078 80.703125 L 66.320312 83.654297 L 66.291016 83.669922 L 63.978516 84.951172 L 61.671875 86.171875 L 59.589844 87.222656 L 59.542969 87.244141 L 59.521484 87.255859 L 57.544922 88.199219 L 57.535156 88.199219 L 55.599609 89.070312 L 55.578125 89.080078 L 53.75 89.847656 L 53.730469 89.857422 L 51.958984 90.542969 L 50.292969 91.132812 L 48.744141 91.623047 L 47.279297 92.027344 L 46.421875 92.228516 L 48.056641 99.195312 L 48.988281 98.976562 L 49.058594 98.960938 L 49.126953 98.939453 L 50.714844 98.5 L 50.777344 98.484375 L 50.839844 98.462891 L 52.511719 97.933594 L 52.568359 97.914062 L 52.625 97.894531 L 54.384766 97.273438 L 54.435547 97.255859 L 54.486328 97.236328 L 56.335938 96.519531 L 56.380859 96.501953 L 56.425781 96.482422 L 58.365234 95.669922 L 58.40625 95.652344 L 58.447266 95.634766 L 60.476562 94.722656 L 60.515625 94.703125 L 60.552734 94.685547 L 62.673828 93.673828 L 62.708984 93.65625 L 62.742188 93.640625 L 64.955078 92.523438 L 64.988281 92.507812 L 65.019531 92.490234 L 67.326172 91.267578 L 67.355469 91.251953 L 67.384766 91.236328 L 69.785156 89.908203 L 69.826172 89.886719 L 69.865234 89.863281 L 74.955078 86.875 L 71.330078 80.703125 z "
       transform="translate(0,952.3622)"
       id="path4210-6" />
  </g>
</svg>
